<svg xmlns="http://www.w3.org/2000/svg" width="94.269" height="94.269" viewBox="0 0 94.269 94.269">
  <g id="Group_10986" data-name="Group 10986" transform="translate(-688 -1374)">
    <path id="Polygon_2" data-name="Polygon 2" d="M22.473,4.68l-.578.333L4.778,34.479a.669.669,0,0,0,.578,1H39.589a.669.669,0,0,0,.578-1L23.051,5.013a.622.622,0,0,0-.578-.333m0-4.68A5.3,5.3,0,0,1,27.1,2.662L44.214,32.128a5.349,5.349,0,0,1-4.625,8.035H5.357A5.349,5.349,0,0,1,.732,32.128L17.848,2.662A5.3,5.3,0,0,1,22.473,0Z" transform="translate(758.249 1398.661) rotate(90)" fill="#fff"/>
    <path id="Ellipse_57" data-name="Ellipse 57" d="M47.134,4.68A42.454,42.454,0,1,0,89.589,47.134,42.5,42.5,0,0,0,47.134,4.68m0-4.68A47.134,47.134,0,1,1,0,47.134,47.134,47.134,0,0,1,47.134,0Z" transform="translate(688 1374)" fill="#fff"/>
  </g>
</svg>
