<svg xmlns="http://www.w3.org/2000/svg" width="20.842" height="20.842" viewBox="0 0 20.842 20.842">
  <path id="Icon_ionic-md-timer" data-name="Icon ionic-md-timer" d="M12.639,19.588A1.157,1.157,0,1,0,13.8,18.43,1.161,1.161,0,0,0,12.639,19.588Zm0-16.213V8h2.315V5.785A8.1,8.1,0,1,1,5.69,13.8a8.019,8.019,0,0,1,1.829-5.12L13.8,14.953l1.633-1.633L7.553,5.449v.025a10.4,10.4,0,1,0,6.243-2.1ZM20.745,13.8a1.157,1.157,0,1,0-1.157,1.157A1.161,1.161,0,0,0,20.745,13.8Zm-13.9,0A1.157,1.157,0,1,0,8,12.639,1.161,1.161,0,0,0,6.847,13.8Z" transform="translate(-3.375 -3.375)" fill="#c00"/>
</svg>
